{
  "accessors": [
    {
      "bufferView": 2,
      "componentType": 5126,
      "count": 37451,
      "max": [
        16.824504852294922,
        4.3217291831970215,
        2.8171536922454834
      ],
      "min": [
        -10.048043251037598,
        -2.311488151550293,
        -2.298654317855835
      ],
      "type": "VEC3"
    },
    {
      "bufferView": 2,
      "byteOffset": 449412,
      "componentType": 5126,
      "count": 37451,
      "max": [
        1.0,
        1.0,
        1.0
      ],
      "min": [
        -1.0,
        -1.0,
        -1.0
      ],
      "type": "VEC3"
    },
    {
      "bufferView": 1,
      "componentType": 5126,
      "count": 37451,
      "max": [
        0.9994872212409973,
        1.0
      ],
      "min": [
        -3.3836392056743034e-17,
        0.0
      ],
      "type": "VEC2"
    },
    {
      "bufferView": 0,
      "componentType": 5125,
      "count": 180756,
      "type": "SCALAR"
    },
    {
      "bufferView": 2,
      "byteOffset": 898824,
      "componentType": 5126,
      "count": 6902,
      "max": [
        16.467803955078125,
        2.3770980834960938,
        1.9357225894927979
      ],
      "min": [
        7.339069843292236,
        -2.557612419128418,
        -2.8844621181488037
      ],
      "type": "VEC3"
    },
    {
      "bufferView": 2,
      "byteOffset": 981648,
      "componentType": 5126,
      "count": 6902,
      "max": [
        1.0,
        0.99996417760849,
        1.0
      ],
      "min": [
        -1.0,
        -0.9999679327011108,
        -1.0
      ],
      "type": "VEC3"
    },
    {
      "bufferView": 3,
      "componentType": 5126,
      "count": 6902,
      "max": [
        1.0,
        0.9999203681945801,
        0.9999938607215881,
        1.0
      ],
      "min": [
        -1.0,
        -0.9999364614486694,
        -0.9999977946281433,
        1.0
      ],
      "type": "VEC4"
    },
    {
      "bufferView": 1,
      "byteOffset": 299608,
      "componentType": 5126,
      "count": 6902,
      "max": [
        0.9885417222976685,
        0.8339728116989136
      ],
      "min": [
        0.006783246994018555,
        0.008295297622680664
      ],
      "type": "VEC2"
    },
    {
      "bufferView": 0,
      "byteOffset": 723024,
      "componentType": 5125,
      "count": 40908,
      "type": "SCALAR"
    },
    {
      "bufferView": 2,
      "byteOffset": 1064472,
      "componentType": 5126,
      "count": 1419,
      "max": [
        7.223605155944824,
        0.4573221206665039,
        2.8844621181488037
      ],
      "min": [
        2.354886054992676,
        -0.6384153366088867,
        2.5865485668182373
      ],
      "type": "VEC3"
    },
    {
      "bufferView": 2,
      "byteOffset": 1081500,
      "componentType": 5126,
      "count": 1419,
      "max": [
        1.0,
        0.9999990463256836,
        1.0
      ],
      "min": [
        -1.0,
        -0.9999990463256836,
        -0.0014617207925766706
      ],
      "type": "VEC3"
    },
    {
      "bufferView": 1,
      "byteOffset": 354824,
      "componentType": 5126,
      "count": 1419,
      "max": [
        1.0,
        0.5720593333244324
      ],
      "min": [
        0.0,
        0.0
      ],
      "type": "VEC2"
    },
    {
      "bufferView": 0,
      "byteOffset": 886656,
      "componentType": 5125,
      "count": 7998,
      "type": "SCALAR"
    },
    {
      "bufferView": 2,
      "byteOffset": 1098528,
      "componentType": 5126,
      "count": 604,
      "max": [
        -4.944867134094238,
        -0.3547019958496094,
        1.506399393081665
      ],
      "min": [
        -5.903302192687988,
        -0.7609262466430664,
        -2.2201242446899414
      ],
      "type": "VEC3"
    },
    {
      "bufferView": 2,
      "byteOffset": 1105776,
      "componentType": 5126,
      "count": 604,
      "max": [
        1.0,
        0.9495460987091064,
        0.9863601326942444
      ],
      "min": [
        -1.0,
        -0.9495500922203064,
        -0.9863615036010742
      ],
      "type": "VEC3"
    },
    {
      "bufferView": 1,
      "byteOffset": 366176,
      "componentType": 5126,
      "count": 604,
      "max": [
        1.0,
        0.9735627174377441
      ],
      "min": [
        0.0,
        0.0
      ],
      "type": "VEC2"
    },
    {
      "bufferView": 0,
      "byteOffset": 918648,
      "componentType": 5125,
      "count": 1224,
      "type": "SCALAR"
    },
    {
      "bufferView": 2,
      "byteOffset": 1113024,
      "componentType": 5126,
      "count": 209,
      "max": [
        -6.640387535095215,
        1.0285367965698242,
        0.7692946791648865
      ],
      "min": [
        -73.75899505615234,
        -1.223780632019043,
        -1.4830176830291748
      ],
      "type": "VEC3"
    },
    {
      "bufferView": 2,
      "byteOffset": 1115532,
      "componentType": 5126,
      "count": 209,
      "max": [
        1.918055403393737e-07,
        1.0,
        1.0
      ],
      "min": [
        -1.0,
        -1.0,
        -1.0
      ],
      "type": "VEC3"
    },
    {
      "bufferView": 1,
      "byteOffset": 371008,
      "componentType": 5126,
      "count": 209,
      "max": [
        0.8531816005706787,
        0.9873712062835693
      ],
      "min": [
        0.011170268058776855,
        0.003375252243131399
      ],
      "type": "VEC2"
    },
    {
      "bufferView": 0,
      "byteOffset": 923544,
      "componentType": 5125,
      "count": 780,
      "type": "SCALAR"
    }
  ],
  "asset": {
    "extras": {
      "author": "Paul (https://sketchfab.com/bbfizzle)",
      "license": "CC-BY-NC-ND-4.0 (http://creativecommons.org/licenses/by-nc-nd/4.0/)",
      "source": "https://sketchfab.com/3d-models/anakin-skywalkers-lightsaber-b032515c9ff3471fbb824bb4ec81cde3",
      "title": "Anakin Skywalker's Lightsaber"
    },
    "generator": "Sketchfab-12.66.0",
    "version": "2.0"
  },
  "bufferViews": [
    {
      "buffer": 0,
      "byteLength": 926664,
      "name": "floatBufferViews",
      "target": 34963
    },
    {
      "buffer": 0,
      "byteLength": 372680,
      "byteOffset": 926664,
      "byteStride": 8,
      "name": "floatBufferViews",
      "target": 34962
    },
    {
      "buffer": 0,
      "byteLength": 1118040,
      "byteOffset": 1299344,
      "byteStride": 12,
      "name": "floatBufferViews",
      "target": 34962
    },
    {
      "buffer": 0,
      "byteLength": 110432,
      "byteOffset": 2417384,
      "byteStride": 16,
      "name": "floatBufferViews",
      "target": 34962
    }
  ],
  "buffers": [
    {
      "byteLength": 2527816,
      "uri": "scene.bin"
    }
  ],
  "images": [
    {
      "uri": "textures/Metal_baseColor.png"
    },
    {
      "uri": "textures/Metal_metallicRoughness.png"
    },
    {
      "uri": "textures/Rubber_baseColor.png"
    },
    {
      "uri": "textures/Rubber_metallicRoughness.png"
    },
    {
      "uri": "textures/Rubber_normal.png"
    },
    {
      "uri": "textures/Glass_baseColor.png"
    },
    {
      "uri": "textures/Glass_metallicRoughness.png"
    },
    {
      "uri": "textures/Copper_baseColor.png"
    },
    {
      "uri": "textures/Copper_metallicRoughness.png"
    },
    {
      "uri": "textures/Laser_emissive.png"
    }
  ],
  "materials": [
    {
      "doubleSided": true,
      "name": "Metal",
      "pbrMetallicRoughness": {
        "baseColorTexture": {
          "index": 0
        },
        "metallicRoughnessTexture": {
          "index": 1
        }
      }
    },
    {
      "doubleSided": true,
      "name": "Rubber",
      "normalTexture": {
        "index": 4
      },
      "pbrMetallicRoughness": {
        "baseColorTexture": {
          "index": 2
        },
        "metallicFactor": 0.0,
        "metallicRoughnessTexture": {
          "index": 3
        }
      }
    },
    {
      "alphaMode": "BLEND",
      "doubleSided": true,
      "name": "Glass",
      "pbrMetallicRoughness": {
        "baseColorTexture": {
          "index": 5
        },
        "metallicFactor": 0.0,
        "metallicRoughnessTexture": {
          "index": 6
        }
      }
    },
    {
      "doubleSided": true,
      "name": "Copper",
      "pbrMetallicRoughness": {
        "baseColorTexture": {
          "index": 7
        },
        "metallicRoughnessTexture": {
          "index": 8
        }
      }
    },
    {
      "doubleSided": true,
      "emissiveFactor": [
        1.0,
        1.0,
        1.0
      ],
      "emissiveTexture": {
        "index": 9
      },
      "name": "Laser",
      "pbrMetallicRoughness": {
        "baseColorFactor": [
          0.5,
          0.5,
          0.5,
          1.0
        ],
        "metallicFactor": 0.0,
        "roughnessFactor": 0.0
      }
    }
  ],
  "meshes": [
    {
      "name": "Saber_Metal_0",
      "primitives": [
        {
          "attributes": {
            "NORMAL": 1,
            "POSITION": 0,
            "TEXCOORD_0": 2
          },
          "indices": 3,
          "material": 0,
          "mode": 4
        }
      ]
    },
    {
      "name": "Saber_Rubber_0",
      "primitives": [
        {
          "attributes": {
            "NORMAL": 5,
            "POSITION": 4,
            "TANGENT": 6,
            "TEXCOORD_0": 7
          },
          "indices": 8,
          "material": 1,
          "mode": 4
        }
      ]
    },
    {
      "name": "Saber_Glass_0",
      "primitives": [
        {
          "attributes": {
            "NORMAL": 10,
            "POSITION": 9,
            "TEXCOORD_0": 11
          },
          "indices": 12,
          "material": 2,
          "mode": 4
        }
      ]
    },
    {
      "name": "Saber_Copper_0",
      "primitives": [
        {
          "attributes": {
            "NORMAL": 14,
            "POSITION": 13,
            "TEXCOORD_0": 15
          },
          "indices": 16,
          "material": 3,
          "mode": 4
        }
      ]
    },
    {
      "name": "Saber_Laser_0",
      "primitives": [
        {
          "attributes": {
            "NORMAL": 18,
            "POSITION": 17,
            "TEXCOORD_0": 19
          },
          "indices": 20,
          "material": 4,
          "mode": 4
        }
      ]
    }
  ],
  "nodes": [
    {
      "children": [
        1
      ],
      "matrix": [
        1.0,
        0.0,
        0.0,
        0.0,
        0.0,
        2.220446049250313e-16,
        -1.0,
        0.0,
        0.0,
        1.0,
        2.220446049250313e-16,
        0.0,
        0.0,
        0.0,
        0.0,
        1.0
      ],
      "name": "Sketchfab_model"
    },
    {
      "children": [
        2
      ],
      "matrix": [
        1.0,
        0.0,
        0.0,
        0.0,
        0.0,
        0.0,
        1.0,
        0.0,
        0.0,
        -1.0,
        0.0,
        0.0,
        0.0,
        0.0,
        0.0,
        1.0
      ],
      "name": "4ab6e219a1d74f83aa3e266dece70e98.fbx"
    },
    {
      "children": [
        3
      ],
      "name": "RootNode"
    },
    {
      "children": [
        4,
        5,
        6,
        7,
        8
      ],
      "name": "Saber"
    },
    {
      "mesh": 0,
      "name": "Saber_Metal_0"
    },
    {
      "mesh": 1,
      "name": "Saber_Rubber_0"
    },
    {
      "mesh": 2,
      "name": "Saber_Glass_0"
    },
    {
      "mesh": 3,
      "name": "Saber_Copper_0"
    },
    {
      "mesh": 4,
      "name": "Saber_Laser_0"
    }
  ],
  "samplers": [
    {
      "magFilter": 9729,
      "minFilter": 9987,
      "wrapS": 10497,
      "wrapT": 10497
    }
  ],
  "scene": 0,
  "scenes": [
    {
      "name": "Sketchfab_Scene",
      "nodes": [
        0
      ]
    }
  ],
  "textures": [
    {
      "sampler": 0,
      "source": 0
    },
    {
      "sampler": 0,
      "source": 1
    },
    {
      "sampler": 0,
      "source": 2
    },
    {
      "sampler": 0,
      "source": 3
    },
    {
      "sampler": 0,
      "source": 4
    },
    {
      "sampler": 0,
      "source": 5
    },
    {
      "sampler": 0,
      "source": 6
    },
    {
      "sampler": 0,
      "source": 7
    },
    {
      "sampler": 0,
      "source": 8
    },
    {
      "sampler": 0,
      "source": 9
    }
  ]
}
